<svg width="60" height="60" viewBox="0 0 60 60" fill="none" xmlns="http://www.w3.org/2000/svg">
<rect width="21.2594" height="10.6297" rx="5.31485" transform="matrix(0.715034 0.699089 -0.715034 0.699089 17.6006 15)" fill="#297AFF"/>
<path d="M13.8003 41.2844C11.7015 39.2324 11.7015 35.9053 13.8003 33.8533L21.4009 26.4222C23.4997 24.3701 26.9026 24.3701 29.0015 26.4222C31.1003 28.4742 31.1003 31.8013 29.0015 33.8533L21.4009 41.2844C19.302 43.3364 15.8991 43.3364 13.8003 41.2844Z" fill="#297AFF"/>
<rect width="21.2594" height="10.6297" rx="5.31485" transform="matrix(0.715034 0.699089 -0.715034 0.699089 34.7988 15)" fill="#297AFF"/>
<path d="M30.9985 41.2844C28.8997 39.2324 28.8997 35.9053 30.9985 33.8533L38.5991 26.4222C40.698 24.3701 44.1009 24.3701 46.1997 26.4222C48.2986 28.4742 48.2986 31.8013 46.1997 33.8533L38.5991 41.2844C36.5003 43.3364 33.0974 43.3364 30.9985 41.2844Z" fill="#297AFF"/>
<circle cx="30" cy="30" r="28.5" stroke="#297AFF" stroke-width="3" />
</svg>
