<svg width="159" height="48" viewBox="0 0 159 48" fill="none" xmlns="http://www.w3.org/2000/svg">
<path d="M0.648 46V1.2H15.752V46H0.648ZM39.727 47.024C35.9723 47.024 32.3457 46.5973 28.847 45.744C25.3483 44.8907 22.4683 43.7813 20.207 42.416L25.071 31.408C27.2043 32.6453 29.5723 33.648 32.175 34.416C34.8203 35.1413 37.3803 35.504 39.855 35.504C41.3057 35.504 42.4363 35.4187 43.247 35.248C44.1003 35.0347 44.719 34.7573 45.103 34.416C45.487 34.032 45.679 33.584 45.679 33.072C45.679 32.2613 45.231 31.6213 44.335 31.152C43.439 30.6827 42.2443 30.2987 40.751 30C39.3003 29.6587 37.7003 29.3173 35.951 28.976C34.2017 28.592 32.431 28.1013 30.639 27.504C28.8897 26.9067 27.2683 26.1173 25.775 25.136C24.3243 24.1547 23.151 22.8747 22.255 21.296C21.359 19.6747 20.911 17.6693 20.911 15.28C20.911 12.5067 21.679 9.98933 23.215 7.728C24.7937 5.424 27.119 3.58933 30.191 2.224C33.3057 0.858665 37.167 0.175999 41.775 0.175999C44.8043 0.175999 47.791 0.495998 50.735 1.136C53.679 1.776 56.3243 2.75733 58.671 4.08L54.127 15.024C51.9083 13.9147 49.7537 13.0827 47.663 12.528C45.615 11.9733 43.6097 11.696 41.647 11.696C40.1963 11.696 39.0443 11.824 38.191 12.08C37.3377 12.336 36.719 12.6773 36.335 13.104C35.9937 13.5307 35.823 14 35.823 14.512C35.823 15.28 36.271 15.8987 37.167 16.368C38.063 16.7947 39.2363 17.1573 40.687 17.456C42.1803 17.7547 43.8017 18.0747 45.551 18.416C47.343 18.7573 49.1137 19.2267 50.863 19.824C52.6123 20.4213 54.2123 21.2107 55.663 22.192C57.1563 23.1733 58.351 24.4533 59.247 26.032C60.143 27.6107 60.591 29.5733 60.591 31.92C60.591 34.6507 59.8017 37.168 58.223 39.472C56.687 41.7333 54.383 43.568 51.311 44.976C48.239 46.3413 44.3777 47.024 39.727 47.024ZM60.2215 46L79.8055 1.2H94.6535L114.238 46H98.6215L84.1575 8.368H90.0455L75.5815 46H60.2215ZM71.8695 38.192L75.7095 27.312H96.3175L100.158 38.192H71.8695ZM116.648 46V1.2H138.216C142.397 1.2 146.003 1.88266 149.032 3.248C152.104 4.61333 154.472 6.576 156.136 9.136C157.8 11.6533 158.632 14.64 158.632 18.096C158.632 21.552 157.8 24.5387 156.136 27.056C154.472 29.5733 152.104 31.536 149.032 32.944C146.003 34.3093 142.397 34.992 138.216 34.992H125.032L131.752 28.528V46H116.648ZM131.752 30.192L125.032 23.344H137.256C139.347 23.344 140.883 22.8747 141.864 21.936C142.888 20.9973 143.4 19.7173 143.4 18.096C143.4 16.4747 142.888 15.1947 141.864 14.256C140.883 13.3173 139.347 12.848 137.256 12.848H125.032L131.752 6V30.192Z" fill="url(#paint0_linear_4_332)"/>
<defs>
<linearGradient id="paint0_linear_4_332" x1="79" y1="73.5" x2="79" y2="-26.5" gradientUnits="userSpaceOnUse">
<stop stop-color="#EFEFEF"/>
<stop offset="1" stop-color="white" stop-opacity="0"/>
</linearGradient>
</defs>
</svg>
